<?xml version="1.0" encoding="UTF-8"?>
<svg enable-background="new -368 407.9 26 26" version="1.1" viewBox="-368 407.9 26 26" xml:space="preserve" xmlns="http://www.w3.org/2000/svg">
<style type="text/css">
	.st0{fill:#FFFFFF;}
</style>
<title>ic-cat-platforms</title>
<desc>Created with Sketch.</desc>
<path class="st0" d="m-356.8 422.7l-2.4 0.2-5-5.3c-2 1.8-3.2 4.6-2.8 7.5 0.6 4.7 4.9 8.1 9.7 7.5 1.9-0.3 3.7-1.1 5-2.4l-4.4-4.6-0.1-2.9z"/>
<path class="st0" d="m-355.4 413.9l-0.4 1.4c3.3 0.9 5.9 3.5 6.5 7l1.4-0.4c-0.8-3.9-3.8-7-7.5-8z"/>
<path class="st0" d="m-356.5 417.9l-0.4 1.4c1.8 0.5 3.3 2 3.5 4v0.2l1.4-0.4c-0.3-2.6-2.1-4.6-4.5-5.2z"/>
<path class="st0" d="m-354.4 409.8l-0.4 1.4c4.7 1.2 8.5 5 9.5 10l1.4-0.4c-1.1-5.4-5.3-9.6-10.5-11z"/>
</svg>
