<?xml version="1.0" encoding="UTF-8"?>
<svg enable-background="new -448.6 407.9 26 26" version="1.1" viewBox="-448.6 407.9 26 26" xml:space="preserve" xmlns="http://www.w3.org/2000/svg">
<title>ic-cat-platforms</title>
<desc>Created with Sketch.</desc>
<path style="fill:#FFF" d="m-424 409.1c-1.2-1.2-3.9 0.1-5 1.2l-3.7 3.7-0.4 1.2-2.3 2.3c0.3-0.6 0.2-1.2-0.2-1.5-1-1-3.1 0-4 0.9l-7.3 7.3-1.2 3.9 3.7-1.1-1.1 3.7 3.7-1.1-1.1 3.7 3.9-1.2 7.3-7.3c0.9-0.9 1.8-3 0.9-4-0.3-0.3-1.1-0.4-1.5-0.2l2.3-2.3 1.2-0.4 3.7-3.7c1-1.2 2.3-3.9 1.1-5.1zm-14.8 8.3c0.7-0.7 2.2-1.2 2.6-0.9 0.4 0.4-0.2 1.9-0.9 2.6l-0.7 0.7-6.7 5.2-1-1 6.7-6.6zm-5.5 9.1l0.1 0.1-0.1-0.1zm12.9-5.2c0.4 0.4-0.2 1.9-0.9 2.6l-0.7 0.7-6.7 5.2-1-1 6.6-6.6c0.8-0.7 2.3-1.2 2.7-0.9zm5.6-7.9l-3.5 3.5-1.2 0.4-4.2 4.2-0.7 0.7-6.7 5.2-1-1 6.6-6.6 4.2-4.2 0.4-1.2 3.5-3.5c0.9-0.9 3.1-1.7 3.6-1.2 0.7 0.6-0.1 2.8-1 3.7z"/>
</svg>