<?xml version="1.0" encoding="UTF-8"?>
<svg enable-background="new -405.3 407.9 26 26" version="1.1" viewBox="-405.3 407.9 26 26" xml:space="preserve" xmlns="http://www.w3.org/2000/svg">
<style type="text/css">
	.st0{fill:#FFFFFF;}
</style>
<title>ic-cat-platforms</title>
<desc>Created with Sketch.</desc>
	<path class="st0" d="m-391.7 416.9c0.1 0 0.1 0 0.2 0.1h-0.1c0 0.1 0 0.2-0.1 0.3 0 0.1 0 0.1 0.1 0.2h0.1v-0.2-0.1-0.1c0.1 0.1 0.2 0.1 0.3 0.2l0.2-0.2v-0.1c-0.2-0.1-0.5-0.2-0.8-0.3-0.1 0.1-0.2 0.2-0.4 0.2h0.1c0.2 0.1 0.3 0 0.4 0z"/>
	<path class="st0" d="m-392 414.1c-3.8 0-7 3.1-7 7s3.1 7 7 7c3.8 0 7-3.1 7-7s-3.2-7-7-7zm3.2 2.3h0.2c0 0.1 0 0.2-0.1 0.2s-0.3 0-0.4-0.1c0-0.1 0.1-0.2 0.1-0.3 0.1 0.1 0.1 0.2 0.2 0.2zm1.7 5.7v0.2h0.1l0.1-0.1c0.1 0 0.2-0.1 0.2 0 0.1 0 0.1 0.1 0.2 0.1 0.3 0.1 0.6 0.2 0.5 0.6-0.2 0.4-0.4 0.7-0.7 1.1l-0.6 0.9c-0.2 0.3-0.5 0.5-0.8 0.7s-0.6 0.3-0.8 0.5c-0.1 0.1-0.2 0.2-0.4 0.3-0.1 0.1-0.3 0.1-0.4 0.2-0.2 0.1-0.3 0.3-0.5 0.4-0.1 0-0.1 0.1-0.2 0.1-0.4 0.1-0.8 0.2-1.2 0.2 0.3-0.1 0.6-0.2 0.9-0.3 0.2-0.1 0.3-0.2 0.4-0.4l0.3-0.6c0.2-0.4 0.4-0.9 0.6-1.3 0.3-0.5-0.4-0.6-0.4-1-0.1-0.3-0.3-0.6-0.3-1s0.1-0.8 0.2-1.2c0-0.1 0.1-0.2 0.1-0.3h-0.3-0.2c-0.2-0.2-0.5-0.4-0.7-0.6h-0.1c-0.4 0-0.8 0-1.1-0.1-0.5-0.1-1 0-1.3-0.6-0.2-0.4-0.7-0.8-1.1-1.1h-0.2v0.2c0.2 0.2 0.4 0.5 0.5 0.7h0.1v0.1c-0.1-0.1-0.2-0.1-0.3-0.2-0.1-0.2-0.2-0.3-0.4-0.5l-0.6-0.6c-0.2-0.4-0.3-0.7-0.1-1.2 0.1-0.2 0-0.4 0-0.6s-0.1-0.3-0.1-0.5c0-0.1-0.1-0.3-0.1-0.3-0.2 0.1-0.5 0.1-0.8 0.2 0.5-0.5 1.2-0.8 1.8-1.1 0.2 0 0.5 0 0.7-0.1 0.2 0 0.4-0.1 0.6-0.1h0.2-0.2s0-0.1-0.1-0.1h-0.2 0.1c0.2 0 0.4-0.1 0.6-0.1 0.1 0 0.3 0 0.4 0.1h0.1c0 0.1 0 0.2-0.1 0.2s-0.2 0-0.3 0.1h0.4c0.1 0 0.2 0 0.3-0.1 0 0 0.1 0 0.1-0.1h-0.1s-0.1 0-0.1-0.1h0.1l0.1-0.1h0.3l0.1 0.1 0.1-0.1h0.4 0.1c0.2 0 0.3 0.1 0.5 0.1-0.3 0-0.6 0-0.9 0.2h-0.2c-0.2 0.1-0.5 0.2-0.6 0.4-0.1 0.1-0.1 0.3-0.1 0.4h0.2l0.6 0.3c0.1 0 0.1 0.1 0.2 0.2h0.1v-0.2s0-0.1 0.1-0.1c0-0.1 0.1-0.2 0.1-0.2v-0.4h0.4c0.2 0 0.3 0.2 0.4 0.2s0.3 0 0.3 0.1c0 0.2 0.4 0.1 0.3 0.4h0.1c0.1 0 0.2 0.1 0.3 0.1 0 0 0 0.1-0.1 0.1-0.2 0.1-0.5 0.1-0.7 0.2-0.1 0.1-0.2 0.2-0.4 0.3 0.1-0.1 0.1-0.2 0.2-0.2s0.2 0.1 0.3 0.1c0 0 0.1 0 0.1 0.1 0.1 0 0.2 0 0.3 0.1v-0.1 0.1c-0.1 0-0.1 0.1-0.2 0.1 0 0-0.1 0-0.1 0.1l0.1-0.1c-0.2 0.1-0.3 0.2-0.5 0.2 0 0 0 0.1 0.1 0.2h0.1-0.1c-0.1 0-0.2 0.1-0.3 0.2s-0.1 0.3-0.1 0.4v0.2c-0.5 0.3-0.5 0.6-0.1 0.9v0.2c-0.1 0-0.1 0-0.2-0.1-0.2-0.1-0.4-0.3-0.6-0.3-0.1 0-0.3 0.1-0.4 0.1h-0.1c-0.3 0.1-0.8 0.1-0.8 0.2 0 0.3 0 0.8 0.2 1 0.3 0.3 0.7 0.4 0.8-0.2 0-0.1 0.3-0.1 0.4-0.1v0.1 0.5c0 0.1 0.1 0.2 0.2 0.2 0.5-0.2 0.7 0 0.6 0.5l-0.1 0.1h-0.1c0 0.1 0.1 0.2 0.1 0.2 0.3-0.1 0.7-0.2 1-0.2h0.1v0.1 0.3h0.1v-0.1c0-0.1 0.1-0.2 0.1-0.3 0 0 0.1 0.1 0.2 0.1h0.1c0.2 0 0.4-0.1 0.6-0.1 0.1 0 0.3 0.1 0.4 0.2s0.2 0.2 0.3 0.2c1-0.2 1.1 0.1 0.8 0.5z"/>
	<path class="st0" d="m-389.3 416.8h-0.1c0-0.1 0 0 0.1 0-0.1 0 0 0 0 0z"/>
	<path class="st0" d="m-382.9 414.8l1.4-1.5-3.4-3.1-1.3 1.4c-1.7-1.1-3.7-1.7-5.9-1.7-6.1 0-11.1 5-11.1 11.1s5 11.1 11.1 11.1 11.1-5 11.1-11.1c0.1-2.3-0.6-4.4-1.9-6.2zm-9.1 16c-5.4 0-9.7-4.4-9.7-9.7s4.4-9.7 9.7-9.7c1.8 0 3.5 0.5 4.9 1.4l-0.8 0.9 3.4 3.1 0.7-0.8c1 1.5 1.5 3.3 1.5 5.2 0 5.2-4.4 9.6-9.7 9.6z"/>
</svg>
