<?xml version="1.0" encoding="UTF-8"?>
<svg enable-background="new -284 407.9 26 26" version="1.1" viewBox="-284 407.9 26 26" xml:space="preserve" xmlns="http://www.w3.org/2000/svg">
<style type="text/css">
	.st0{fill:#FFFFFF;}
</style>
<title>ic-cat-platforms</title>
<desc>Created with Sketch.</desc>
<path class="st0" d="m-258.7 421.8c0-2.8-2.2-5.1-5-5.2-1.2-3.3-4.3-5.4-7.8-5.4-3.6 0-6.9 2.4-8 5.8-2.5 1.1-4.2 3.6-4.2 6.3 0 3.8 3.1 6.9 6.9 6.9h14.9c2.1 0 3.7-1.7 3.7-3.7 0-0.9-0.4-1.8-1-2.5 0.3-0.9 0.5-1.5 0.5-2.2zm-3.2 6.9h-14.9c-3 0-5.5-2.5-5.5-5.5 0-2.3 1.4-4.3 3.6-5.1l0.3-0.1 0.1-0.4c0.8-3 3.6-5.1 6.7-5.1s5.8 2 6.7 5l0.2 0.6 0.7-0.1c2.1 0 3.9 1.7 3.9 3.9 0 0.6-0.2 1.3-0.5 1.9l-0.3 0.5 0.5 0.4c0.6 0.5 0.9 1.1 0.9 1.8-0.1 1.1-1.1 2.2-2.4 2.2z"/>
<polygon class="st0" points="-276.3 423.5 -273.2 423.5 -273.2 427.2 -268.6 427.2 -268.6 423.5 -265.5 423.5 -270.9 417.6"/>
</svg>
