<?xml version="1.0" encoding="UTF-8"?>
<svg width="136px" height="42px" viewBox="0 0 136 42" version="1.1" xmlns="http://www.w3.org/2000/svg" xmlns:xlink="http://www.w3.org/1999/xlink">
    <!-- Generator: Sketch 57.1 (83088) - https://sketch.com -->
    <title>Group</title>
    <desc>Created with Sketch.</desc>
    <g id="Subbrand" stroke="none" stroke-width="1" fill="none" fill-rule="evenodd">
        <g id="Artboard" transform="translate(-391.000000, -294.000000)" fill="#000000" fill-rule="nonzero">
            <g id="Group" transform="translate(391.000000, 294.000000)">
                <path d="M0,0 L19.2902655,0 L19.2902655,4.08849558 L4.57168142,4.08849558 L4.57168142,10.8530973 L17.6176991,10.8530973 L17.6176991,14.9415929 L4.57168142,14.9415929 L4.57168142,21.9292035 L19.4761062,21.9292035 L19.4761062,26.0176991 L0,26.0176991 L0,0 Z M42.5575221,21.9663717 C44.1185919,21.9663717 45.3451283,21.6690295 46.2371681,21.0743363 C47.129208,20.479643 47.5752212,19.5876166 47.5752212,18.3982301 L47.5752212,18.3238938 C47.5752212,17.208844 47.1354026,16.3477906 46.2557522,15.740708 C45.3761018,15.1336253 44.0318675,14.8300885 42.2230088,14.8300885 L34.9752212,14.8300885 L34.9752212,21.9663717 L42.5575221,21.9663717 Z M41.219469,10.9646018 C42.7062021,10.9646018 43.8955708,10.6734542 44.7876106,10.0911504 C45.6796505,9.50884665 46.1256637,8.6230148 46.1256637,7.43362832 L46.1256637,7.35929204 C46.1256637,6.31857887 45.7354021,5.50708256 44.9548673,4.92477876 C44.1743324,4.34247496 43.0407154,4.05132743 41.5539823,4.05132743 L34.9752212,4.05132743 L34.9752212,10.9646018 L41.219469,10.9646018 Z M30.4778761,0 L42.1486726,0 C45.1469176,0 47.4141516,0.768133912 48.9504425,2.30442478 C50.1150501,3.46903237 50.6973451,4.90618614 50.6973451,6.6159292 L50.6973451,6.69026549 C50.6973451,7.48318981 50.5920365,8.18318281 50.3814159,8.79026549 C50.1707954,9.39734817 49.8982318,9.9300862 49.5637168,10.3884956 C49.2292019,10.8469049 48.8327457,11.2495558 48.3743363,11.5964602 C47.9159269,11.9433646 47.4513298,12.2407067 46.980531,12.4884956 C47.7486764,12.7610633 48.4486694,13.0769894 49.080531,13.4362832 C49.7123925,13.795577 50.2575198,14.2230064 50.7159292,14.7185841 C51.1743386,15.2141618 51.5274324,15.7964568 51.7752212,16.4654867 C52.0230101,17.1345166 52.1469027,17.9150398 52.1469027,18.8070796 L52.1469027,18.8814159 C52.1469027,20.0460235 51.9177014,21.0743318 51.459292,21.9663717 C51.0008827,22.8584115 50.3504467,23.6017669 49.5079646,24.1964602 C48.6654825,24.7911534 47.6495635,25.2433613 46.460177,25.5530973 C45.2707905,25.8628334 43.9575293,26.0176991 42.520354,26.0176991 L30.4778761,26.0176991 L30.4778761,0 Z M74.1504425,12.8973451 C75.7858489,12.8973451 77.0867208,12.5070835 78.0530973,11.7265487 C79.0194739,10.9460138 79.5026549,9.88673235 79.5026549,8.54867257 L79.5026549,8.47433628 C79.5026549,7.06193984 79.0318631,5.99026914 78.0902655,5.25929204 C77.1486679,4.52831493 75.8230174,4.16283186 74.1132743,4.16283186 L67.460177,4.16283186 L67.460177,12.8973451 L74.1504425,12.8973451 Z M62.8884956,0 L74.4849558,0 C76.1203622,0 77.5699052,0.229201248 78.8336283,0.687610619 C80.0973515,1.14601999 81.1504383,1.78406671 81.9929204,2.60176991 C82.6867291,3.32035758 83.2194672,4.15043777 83.5911504,5.0920354 C83.9628337,6.03363303 84.1486726,7.07433058 84.1486726,8.21415929 L84.1486726,8.28849558 C84.1486726,9.35398763 83.9938069,10.314155 83.6840708,11.1690265 C83.3743347,12.0238981 82.9469054,12.7796427 82.4017699,13.4362832 C81.8566344,14.0929236 81.2061985,14.6504402 80.4504425,15.1088496 C79.6946865,15.5672589 78.8584117,15.9203527 77.9415929,16.1681416 L84.9663717,26.0176991 L79.5769912,26.0176991 L73.1840708,16.9486726 L67.460177,16.9486726 L67.460177,26.0176991 L62.8884956,26.0176991 L62.8884956,0 Z M111.095575,15.6849558 L106.59823,5.27787611 L102.138053,15.6849558 L111.095575,15.6849558 Z M108.872694,0.000619839127 L120.238938,26.0176991 L115.40708,26.0176991 L112.768142,19.7362832 L100.465487,19.7362832 L97.7893805,26.0176991 L93.1061947,26.0176991 L104.472522,0.000619839127 L108.872694,0.000619839127 Z M130.534513,0 L135.106195,0 L135.106195,26.0176991 L130.534513,26.0176991 L130.534513,0 Z" id="EBRAI"></path>
                <path d="M84.2527434,39.4428319 L82.8849558,39.4428319 L82.8849558,37.8817699 L84.2527434,37.8817699 L84.2527434,39.4428319 Z M93.4258407,37.2870796 C93.4258407,38.7440708 92.2215929,39.5915044 90.6902655,39.5915044 C89.5900885,39.5915044 88.3709735,39.160354 87.5086726,38.4615929 L88.0884956,37.6438938 C88.9210619,38.2683186 89.8428319,38.6251327 90.7497345,38.6251327 C91.6715044,38.6251327 92.340531,38.1493805 92.340531,37.4060177 L92.340531,37.3762832 C92.340531,36.6031858 91.4336283,36.3058407 90.4226549,36.0233628 C89.2184071,35.6814159 87.880354,35.2651327 87.880354,33.8527434 L87.880354,33.8230088 C87.880354,32.499823 88.980531,31.6226549 90.4969912,31.6226549 C91.4336283,31.6226549 92.4743363,31.9497345 93.2623009,32.4700885 L92.7419469,33.3323894 C92.0283186,32.8715044 91.2106195,32.5890265 90.4672566,32.5890265 C89.560354,32.5890265 88.980531,33.0647788 88.980531,33.7040708 L88.980531,33.7338053 C88.980531,34.4623009 89.9320354,34.7447788 90.9578761,35.0569912 C92.1472566,35.4138053 93.4258407,35.8746903 93.4258407,37.2573451 L93.4258407,37.2870796 Z M104.799292,35.5922124 C104.799292,38.119646 102.985487,39.6063717 101.12708,39.6063717 C99.699823,39.6063717 98.7780531,38.8332743 98.1833628,37.9709735 L98.1833628,41.8215929 L97.0385841,41.8215929 L97.0385841,31.7564602 L98.1833628,31.7564602 L98.1833628,33.3026549 C98.8077876,32.380885 99.7146903,31.5929204 101.12708,31.5929204 C102.970619,31.5929204 104.799292,33.0499115 104.799292,35.5922124 Z M103.624779,35.6070796 C103.624779,33.7784071 102.375929,32.6187611 100.918938,32.6187611 C99.4916814,32.6187611 98.1387611,33.8081416 98.1387611,35.5922124 C98.1387611,37.3911504 99.4916814,38.580531 100.918938,38.580531 C102.405664,38.580531 103.624779,37.480354 103.624779,35.6070796 Z M111.177345,32.6633628 C110.270442,32.6633628 109.556814,32.9012389 108.843186,33.2283186 L108.501239,32.2916814 C109.348673,31.9051327 110.181239,31.6523894 111.296283,31.6523894 C113.392566,31.6523894 114.56708,32.7228319 114.56708,34.7447788 L114.56708,39.4428319 L113.466903,39.4428319 L113.466903,38.2831858 C112.931681,38.9819469 112.039646,39.6063717 110.686726,39.6063717 C109.259469,39.6063717 107.817345,38.8035398 107.817345,37.1978761 C107.817345,35.5624779 109.155398,34.700177 111.103009,34.700177 C112.084248,34.700177 112.783009,34.8339823 113.466903,35.0272566 L113.466903,34.759646 C113.466903,33.3769912 112.619469,32.6633628 111.177345,32.6633628 Z M111.221947,35.5476106 C109.779823,35.5476106 108.976991,36.1720354 108.976991,37.1532743 C108.976991,38.1345133 109.869027,38.699469 110.909735,38.699469 C112.322124,38.699469 113.48177,37.8371681 113.48177,36.6180531 L113.48177,35.8746903 C112.916814,35.7111504 112.158584,35.5476106 111.221947,35.5476106 Z M125.093097,38.1345133 C124.32,38.9968142 123.39823,39.6212389 121.956106,39.6212389 C119.71115,39.6212389 118.016283,37.7925664 118.016283,35.6219469 C118.016283,33.4364602 119.71115,31.5929204 121.956106,31.5929204 C123.413097,31.5929204 124.32,32.2024779 125.033628,32.960708 L124.275398,33.7635398 C123.665841,33.1242478 122.981947,32.6038938 121.941239,32.6038938 C120.380177,32.6038938 119.190796,33.9270796 119.190796,35.5922124 C119.190796,37.2722124 120.409912,38.5953982 122.015575,38.5953982 C122.996814,38.5953982 123.755044,38.1047788 124.364602,37.4506195 L125.093097,38.1345133 Z M128.92885,36.0233628 C129.092389,37.6884956 130.28177,38.6251327 131.63469,38.6251327 C132.690265,38.6251327 133.433628,38.1939823 134.058053,37.539823 L134.771681,38.179115 C133.998584,39.0414159 133.061947,39.6212389 131.604956,39.6212389 C129.493805,39.6212389 127.769204,38.000708 127.769204,35.6070796 C127.769204,33.3769912 129.330265,31.5929204 131.456283,31.5929204 C133.730973,31.5929204 135.039292,33.4067257 135.039292,35.6665487 C135.039292,35.7706195 135.039292,35.8895575 135.024425,36.0233628 L128.92885,36.0233628 Z M128.92885,35.1759292 L133.879646,35.1759292 C133.760708,33.7784071 132.957876,32.559292 131.426549,32.559292 C130.088496,32.559292 129.077522,33.6743363 128.92885,35.1759292 Z" id=".space"></path>
            </g>
        </g>
    </g>
</svg>